<?xml version="1.0" encoding="utf-8" standalone="no"?>
<!DOCTYPE svg PUBLIC "-//W3C//DTD SVG 1.1//EN"
  "http://www.w3.org/Graphics/SVG/1.1/DTD/svg11.dtd">
<svg xmlns:xlink="http://www.w3.org/1999/xlink" width="460.8pt" height="345.6pt" viewBox="0 0 460.8 345.6" xmlns="http://www.w3.org/2000/svg" version="1.1">
 <metadata>
  <rdf:RDF xmlns:dc="http://purl.org/dc/elements/1.1/" xmlns:cc="http://creativecommons.org/ns#" xmlns:rdf="http://www.w3.org/1999/02/22-rdf-syntax-ns#">
   <cc:Work>
    <dc:type rdf:resource="http://purl.org/dc/dcmitype/StillImage"/>
    <dc:date>2026-05-05T22:36:13.670409</dc:date>
    <dc:format>image/svg+xml</dc:format>
    <dc:creator>
     <cc:Agent>
      <dc:title>Matplotlib v3.10.9, https://matplotlib.org/</dc:title>
     </cc:Agent>
    </dc:creator>
   </cc:Work>
  </rdf:RDF>
 </metadata>
 <defs>
  <style type="text/css">*{stroke-linejoin: round; stroke-linecap: butt}</style>
 </defs>
 <g id="figure_1">
  <g id="patch_1">
   <path d="M 0 345.6 
L 460.8 345.6 
L 460.8 0 
L 0 0 
z
" style="fill: #ffffff"/>
  </g>
  <g id="axes_1">
   <g id="patch_2">
    <path d="M 57.6 307.584 
L 414.72 307.584 
L 414.72 41.472 
L 57.6 41.472 
z
" style="fill: #ffffff"/>
   </g>
   <g id="patch_3">
    <path d="M 225.974007 102.471364 
C 231.303204 102.471364 236.414849 100.893625 240.18316 98.085625 
C 243.951472 95.277625 246.068784 91.468626 246.068784 87.497514 
C 246.068784 83.526403 243.951472 79.717403 240.18316 76.909404 
C 236.414849 74.101404 231.303204 72.523665 225.974007 72.523665 
C 220.64481 72.523665 215.533166 74.101404 211.764855 76.909404 
C 207.996543 79.717403 205.879231 83.526403 205.879231 87.497514 
C 205.879231 91.468626 207.996543 95.277625 211.764855 98.085625 
C 215.533166 100.893625 220.64481 102.471364 225.974007 102.471364 
L 225.974007 102.471364 
z
" clip-path="url(#p0dab631212)" style="fill: none; stroke: #000000; stroke-linejoin: miter"/>
   </g>
   <g id="matplotlib.axis_1">
    <g id="xtick_1">
     <g id="line2d_1">
      <path d="M 99.987947 307.584 
L 99.987947 41.472 
" clip-path="url(#p0dab631212)" style="fill: none; stroke: #b0b0b0; stroke-width: 0.8; stroke-linecap: square"/>
     </g>
     <g id="line2d_2">
      <defs>
       <path id="m329ff91f9a" d="M 0 0 
L 0 3.5 
" style="stroke: #000000; stroke-width: 0.8"/>
      </defs>
      <g>
       <use xlink:href="#m329ff91f9a" x="99.987947" y="307.584" style="stroke: #000000; stroke-width: 0.8"/>
      </g>
     </g>
     <g id="text_1">
      <!-- −4 -->
      <g transform="translate(92.616853 322.182437) scale(0.1 -0.1)">
       <defs>
        <path id="DejaVuSans-2212" d="M 678 2272 
L 4684 2272 
L 4684 1741 
L 678 1741 
L 678 2272 
z
" transform="scale(0.015625)"/>
        <path id="DejaVuSans-34" d="M 2419 4116 
L 825 1625 
L 2419 1625 
L 2419 4116 
z
M 2253 4666 
L 3047 4666 
L 3047 1625 
L 3713 1625 
L 3713 1100 
L 3047 1100 
L 3047 0 
L 2419 0 
L 2419 1100 
L 313 1100 
L 313 1709 
L 2253 4666 
z
" transform="scale(0.015625)"/>
       </defs>
       <use xlink:href="#DejaVuSans-2212"/>
       <use xlink:href="#DejaVuSans-34" transform="translate(83.789062 0)"/>
      </g>
     </g>
    </g>
    <g id="xtick_2">
     <g id="line2d_3">
      <path d="M 162.980977 307.584 
L 162.980977 41.472 
" clip-path="url(#p0dab631212)" style="fill: none; stroke: #b0b0b0; stroke-width: 0.8; stroke-linecap: square"/>
     </g>
     <g id="line2d_4">
      <g>
       <use xlink:href="#m329ff91f9a" x="162.980977" y="307.584" style="stroke: #000000; stroke-width: 0.8"/>
      </g>
     </g>
     <g id="text_2">
      <!-- −2 -->
      <g transform="translate(155.609883 322.182437) scale(0.1 -0.1)">
       <defs>
        <path id="DejaVuSans-32" d="M 1228 531 
L 3431 531 
L 3431 0 
L 469 0 
L 469 531 
Q 828 903 1448 1529 
Q 2069 2156 2228 2338 
Q 2531 2678 2651 2914 
Q 2772 3150 2772 3378 
Q 2772 3750 2511 3984 
Q 2250 4219 1831 4219 
Q 1534 4219 1204 4116 
Q 875 4013 500 3803 
L 500 4441 
Q 881 4594 1212 4672 
Q 1544 4750 1819 4750 
Q 2544 4750 2975 4387 
Q 3406 4025 3406 3419 
Q 3406 3131 3298 2873 
Q 3191 2616 2906 2266 
Q 2828 2175 2409 1742 
Q 1991 1309 1228 531 
z
" transform="scale(0.015625)"/>
       </defs>
       <use xlink:href="#DejaVuSans-2212"/>
       <use xlink:href="#DejaVuSans-32" transform="translate(83.789062 0)"/>
      </g>
     </g>
    </g>
    <g id="xtick_3">
     <g id="line2d_5">
      <path d="M 225.974007 307.584 
L 225.974007 41.472 
" clip-path="url(#p0dab631212)" style="fill: none; stroke: #b0b0b0; stroke-width: 0.8; stroke-linecap: square"/>
     </g>
     <g id="line2d_6">
      <g>
       <use xlink:href="#m329ff91f9a" x="225.974007" y="307.584" style="stroke: #000000; stroke-width: 0.8"/>
      </g>
     </g>
     <g id="text_3">
      <!-- 0 -->
      <g transform="translate(222.792757 322.182437) scale(0.1 -0.1)">
       <defs>
        <path id="DejaVuSans-30" d="M 2034 4250 
Q 1547 4250 1301 3770 
Q 1056 3291 1056 2328 
Q 1056 1369 1301 889 
Q 1547 409 2034 409 
Q 2525 409 2770 889 
Q 3016 1369 3016 2328 
Q 3016 3291 2770 3770 
Q 2525 4250 2034 4250 
z
M 2034 4750 
Q 2819 4750 3233 4129 
Q 3647 3509 3647 2328 
Q 3647 1150 3233 529 
Q 2819 -91 2034 -91 
Q 1250 -91 836 529 
Q 422 1150 422 2328 
Q 422 3509 836 4129 
Q 1250 4750 2034 4750 
z
" transform="scale(0.015625)"/>
       </defs>
       <use xlink:href="#DejaVuSans-30"/>
      </g>
     </g>
    </g>
    <g id="xtick_4">
     <g id="line2d_7">
      <path d="M 288.967038 307.584 
L 288.967038 41.472 
" clip-path="url(#p0dab631212)" style="fill: none; stroke: #b0b0b0; stroke-width: 0.8; stroke-linecap: square"/>
     </g>
     <g id="line2d_8">
      <g>
       <use xlink:href="#m329ff91f9a" x="288.967038" y="307.584" style="stroke: #000000; stroke-width: 0.8"/>
      </g>
     </g>
     <g id="text_4">
      <!-- 2 -->
      <g transform="translate(285.785788 322.182437) scale(0.1 -0.1)">
       <use xlink:href="#DejaVuSans-32"/>
      </g>
     </g>
    </g>
    <g id="xtick_5">
     <g id="line2d_9">
      <path d="M 351.960068 307.584 
L 351.960068 41.472 
" clip-path="url(#p0dab631212)" style="fill: none; stroke: #b0b0b0; stroke-width: 0.8; stroke-linecap: square"/>
     </g>
     <g id="line2d_10">
      <g>
       <use xlink:href="#m329ff91f9a" x="351.960068" y="307.584" style="stroke: #000000; stroke-width: 0.8"/>
      </g>
     </g>
     <g id="text_5">
      <!-- 4 -->
      <g transform="translate(348.778818 322.182437) scale(0.1 -0.1)">
       <use xlink:href="#DejaVuSans-34"/>
      </g>
     </g>
    </g>
    <g id="text_6">
     <!-- x -->
     <g transform="translate(233.200625 335.860562) scale(0.1 -0.1)">
      <defs>
       <path id="DejaVuSans-78" d="M 3513 3500 
L 2247 1797 
L 3578 0 
L 2900 0 
L 1881 1375 
L 863 0 
L 184 0 
L 1544 1831 
L 300 3500 
L 978 3500 
L 1906 2253 
L 2834 3500 
L 3513 3500 
z
" transform="scale(0.015625)"/>
      </defs>
      <use xlink:href="#DejaVuSans-78"/>
     </g>
    </g>
    <g id="text_7">
     <!-- 1e7 -->
     <g transform="translate(395.841875 334.860562) scale(0.1 -0.1)">
      <defs>
       <path id="DejaVuSans-31" d="M 794 531 
L 1825 531 
L 1825 4091 
L 703 3866 
L 703 4441 
L 1819 4666 
L 2450 4666 
L 2450 531 
L 3481 531 
L 3481 0 
L 794 0 
L 794 531 
z
" transform="scale(0.015625)"/>
       <path id="DejaVuSans-65" d="M 3597 1894 
L 3597 1613 
L 953 1613 
Q 991 1019 1311 708 
Q 1631 397 2203 397 
Q 2534 397 2845 478 
Q 3156 559 3463 722 
L 3463 178 
Q 3153 47 2828 -22 
Q 2503 -91 2169 -91 
Q 1331 -91 842 396 
Q 353 884 353 1716 
Q 353 2575 817 3079 
Q 1281 3584 2069 3584 
Q 2775 3584 3186 3129 
Q 3597 2675 3597 1894 
z
M 3022 2063 
Q 3016 2534 2758 2815 
Q 2500 3097 2075 3097 
Q 1594 3097 1305 2825 
Q 1016 2553 972 2059 
L 3022 2063 
z
" transform="scale(0.015625)"/>
       <path id="DejaVuSans-37" d="M 525 4666 
L 3525 4666 
L 3525 4397 
L 1831 0 
L 1172 0 
L 2766 4134 
L 525 4134 
L 525 4666 
z
" transform="scale(0.015625)"/>
      </defs>
      <use xlink:href="#DejaVuSans-31"/>
      <use xlink:href="#DejaVuSans-65" transform="translate(63.623047 0)"/>
      <use xlink:href="#DejaVuSans-37" transform="translate(125.146484 0)"/>
     </g>
    </g>
   </g>
   <g id="matplotlib.axis_2">
    <g id="ytick_1">
     <g id="line2d_11">
      <path d="M 57.6 275.257385 
L 414.72 275.257385 
" clip-path="url(#p0dab631212)" style="fill: none; stroke: #b0b0b0; stroke-width: 0.8; stroke-linecap: square"/>
     </g>
     <g id="line2d_12">
      <defs>
       <path id="m2cc7977465" d="M 0 0 
L -3.5 0 
" style="stroke: #000000; stroke-width: 0.8"/>
      </defs>
      <g>
       <use xlink:href="#m2cc7977465" x="57.6" y="275.257385" style="stroke: #000000; stroke-width: 0.8"/>
      </g>
     </g>
     <g id="text_8">
      <!-- −8 -->
      <g transform="translate(35.857813 279.056604) scale(0.1 -0.1)">
       <defs>
        <path id="DejaVuSans-38" d="M 2034 2216 
Q 1584 2216 1326 1975 
Q 1069 1734 1069 1313 
Q 1069 891 1326 650 
Q 1584 409 2034 409 
Q 2484 409 2743 651 
Q 3003 894 3003 1313 
Q 3003 1734 2745 1975 
Q 2488 2216 2034 2216 
z
M 1403 2484 
Q 997 2584 770 2862 
Q 544 3141 544 3541 
Q 544 4100 942 4425 
Q 1341 4750 2034 4750 
Q 2731 4750 3128 4425 
Q 3525 4100 3525 3541 
Q 3525 3141 3298 2862 
Q 3072 2584 2669 2484 
Q 3125 2378 3379 2068 
Q 3634 1759 3634 1313 
Q 3634 634 3220 271 
Q 2806 -91 2034 -91 
Q 1263 -91 848 271 
Q 434 634 434 1313 
Q 434 1759 690 2068 
Q 947 2378 1403 2484 
z
M 1172 3481 
Q 1172 3119 1398 2916 
Q 1625 2713 2034 2713 
Q 2441 2713 2670 2916 
Q 2900 3119 2900 3481 
Q 2900 3844 2670 4047 
Q 2441 4250 2034 4250 
Q 1625 4250 1398 4047 
Q 1172 3844 1172 3481 
z
" transform="scale(0.015625)"/>
       </defs>
       <use xlink:href="#DejaVuSans-2212"/>
       <use xlink:href="#DejaVuSans-38" transform="translate(83.789062 0)"/>
      </g>
     </g>
    </g>
    <g id="ytick_2">
     <g id="line2d_13">
      <path d="M 57.6 228.317417 
L 414.72 228.317417 
" clip-path="url(#p0dab631212)" style="fill: none; stroke: #b0b0b0; stroke-width: 0.8; stroke-linecap: square"/>
     </g>
     <g id="line2d_14">
      <g>
       <use xlink:href="#m2cc7977465" x="57.6" y="228.317417" style="stroke: #000000; stroke-width: 0.8"/>
      </g>
     </g>
     <g id="text_9">
      <!-- −6 -->
      <g transform="translate(35.857813 232.116636) scale(0.1 -0.1)">
       <defs>
        <path id="DejaVuSans-36" d="M 2113 2584 
Q 1688 2584 1439 2293 
Q 1191 2003 1191 1497 
Q 1191 994 1439 701 
Q 1688 409 2113 409 
Q 2538 409 2786 701 
Q 3034 994 3034 1497 
Q 3034 2003 2786 2293 
Q 2538 2584 2113 2584 
z
M 3366 4563 
L 3366 3988 
Q 3128 4100 2886 4159 
Q 2644 4219 2406 4219 
Q 1781 4219 1451 3797 
Q 1122 3375 1075 2522 
Q 1259 2794 1537 2939 
Q 1816 3084 2150 3084 
Q 2853 3084 3261 2657 
Q 3669 2231 3669 1497 
Q 3669 778 3244 343 
Q 2819 -91 2113 -91 
Q 1303 -91 875 529 
Q 447 1150 447 2328 
Q 447 3434 972 4092 
Q 1497 4750 2381 4750 
Q 2619 4750 2861 4703 
Q 3103 4656 3366 4563 
z
" transform="scale(0.015625)"/>
       </defs>
       <use xlink:href="#DejaVuSans-2212"/>
       <use xlink:href="#DejaVuSans-36" transform="translate(83.789062 0)"/>
      </g>
     </g>
    </g>
    <g id="ytick_3">
     <g id="line2d_15">
      <path d="M 57.6 181.37745 
L 414.72 181.37745 
" clip-path="url(#p0dab631212)" style="fill: none; stroke: #b0b0b0; stroke-width: 0.8; stroke-linecap: square"/>
     </g>
     <g id="line2d_16">
      <g>
       <use xlink:href="#m2cc7977465" x="57.6" y="181.37745" style="stroke: #000000; stroke-width: 0.8"/>
      </g>
     </g>
     <g id="text_10">
      <!-- −4 -->
      <g transform="translate(35.857813 185.176668) scale(0.1 -0.1)">
       <use xlink:href="#DejaVuSans-2212"/>
       <use xlink:href="#DejaVuSans-34" transform="translate(83.789062 0)"/>
      </g>
     </g>
    </g>
    <g id="ytick_4">
     <g id="line2d_17">
      <path d="M 57.6 134.437482 
L 414.72 134.437482 
" clip-path="url(#p0dab631212)" style="fill: none; stroke: #b0b0b0; stroke-width: 0.8; stroke-linecap: square"/>
     </g>
     <g id="line2d_18">
      <g>
       <use xlink:href="#m2cc7977465" x="57.6" y="134.437482" style="stroke: #000000; stroke-width: 0.8"/>
      </g>
     </g>
     <g id="text_11">
      <!-- −2 -->
      <g transform="translate(35.857813 138.236701) scale(0.1 -0.1)">
       <use xlink:href="#DejaVuSans-2212"/>
       <use xlink:href="#DejaVuSans-32" transform="translate(83.789062 0)"/>
      </g>
     </g>
    </g>
    <g id="ytick_5">
     <g id="line2d_19">
      <path d="M 57.6 87.497514 
L 414.72 87.497514 
" clip-path="url(#p0dab631212)" style="fill: none; stroke: #b0b0b0; stroke-width: 0.8; stroke-linecap: square"/>
     </g>
     <g id="line2d_20">
      <g>
       <use xlink:href="#m2cc7977465" x="57.6" y="87.497514" style="stroke: #000000; stroke-width: 0.8"/>
      </g>
     </g>
     <g id="text_12">
      <!-- 0 -->
      <g transform="translate(44.2375 91.296733) scale(0.1 -0.1)">
       <use xlink:href="#DejaVuSans-30"/>
      </g>
     </g>
    </g>
    <g id="text_13">
     <!-- y -->
     <g transform="translate(29.778125 177.487375) rotate(-90) scale(0.1 -0.1)">
      <defs>
       <path id="DejaVuSans-79" d="M 2059 -325 
Q 1816 -950 1584 -1140 
Q 1353 -1331 966 -1331 
L 506 -1331 
L 506 -850 
L 844 -850 
Q 1081 -850 1212 -737 
Q 1344 -625 1503 -206 
L 1606 56 
L 191 3500 
L 800 3500 
L 1894 763 
L 2988 3500 
L 3597 3500 
L 2059 -325 
z
" transform="scale(0.015625)"/>
      </defs>
      <use xlink:href="#DejaVuSans-79"/>
     </g>
    </g>
    <g id="text_14">
     <!-- 1e7 -->
     <g transform="translate(57.6 38.472) scale(0.1 -0.1)">
      <use xlink:href="#DejaVuSans-31"/>
      <use xlink:href="#DejaVuSans-65" transform="translate(63.623047 0)"/>
      <use xlink:href="#DejaVuSans-37" transform="translate(125.146484 0)"/>
     </g>
    </g>
   </g>
   <g id="line2d_21">
    <path d="M 225.974007 72.523662 
L 225.974007 72.523662 
L 225.974007 72.523662 
L 225.974007 72.523662 
L 225.974007 72.523662 
L 225.974008 72.523662 
L 225.974008 72.523662 
L 225.974008 72.523662 
L 225.974008 72.523662 
L 225.974008 72.523662 
L 225.974008 72.523662 
L 225.974008 72.523662 
L 225.974008 72.523663 
L 225.974008 72.523663 
L 225.974008 72.523663 
L 225.974008 72.523663 
L 225.974008 72.523663 
L 225.974008 72.523663 
L 225.974008 72.523663 
L 225.974008 72.523663 
L 225.974008 72.523663 
L 225.974008 72.523663 
L 225.974009 72.523663 
L 225.974009 72.523663 
L 225.974009 72.523663 
L 225.974009 72.523663 
L 225.974009 72.523663 
L 225.974009 72.523663 
L 225.974009 72.523663 
L 225.974009 72.523663 
L 225.97401 72.523664 
L 225.97401 72.523664 
L 225.97401 72.523664 
L 225.97401 72.523664 
L 225.97401 72.523664 
L 225.97401 72.523664 
L 225.97401 72.523664 
L 225.974011 72.523664 
L 225.974011 72.523664 
L 225.974011 72.523664 
L 225.974011 72.523664 
L 225.974011 72.523664 
L 225.974012 72.523665 
L 225.974012 72.523665 
" clip-path="url(#p0dab631212)" style="fill: none; stroke: #1f77b4; stroke-linecap: square"/>
   </g>
   <g id="line2d_22">
    <path d="M 225.974007 72.523662 
L 226.066782 72.418318 
L 226.085102 72.418658 
L 229.646824 72.656356 
L 232.311872 73.057361 
L 234.587789 73.634741 
L 236.733379 74.40673 
L 238.715161 75.353987 
L 240.506418 76.454186 
L 242.087097 77.683228 
L 243.444092 79.016967 
L 244.570041 80.432073 
L 245.462652 81.907485 
L 246.122887 83.424556 
L 246.553695 84.967635 
L 246.758406 86.523544 
L 246.739654 88.080566 
L 246.498809 89.628155 
L 246.035705 91.155681 
L 245.349279 92.650852 
L 244.438198 94.099843 
L 243.302399 95.48607 
L 241.944979 96.789863 
L 240.643139 97.757849 
L 240.614709 97.753971 
L 240.614709 97.753971 
" clip-path="url(#p0dab631212)" style="fill: none; stroke: #ff7f0e; stroke-linecap: square"/>
   </g>
   <g id="line2d_23">
    <path d="M 225.974007 72.523662 
L 226.085111 72.309848 
L 226.597566 72.335307 
L 228.275769 72.4546 
L 229.892177 72.494369 
L 233.53506 72.836224 
L 236.811917 73.364474 
L 240.081304 74.116903 
L 243.331745 75.093331 
L 246.551524 76.292956 
L 249.728037 77.713999 
L 252.848772 79.353938 
L 255.900945 81.209314 
L 258.871173 83.275361 
L 261.746341 85.546402 
L 264.513258 88.015551 
L 267.158554 90.674411 
L 269.669399 93.513585 
L 272.033225 96.522305 
L 274.238008 99.688593 
L 276.272408 102.999324 
L 278.125823 106.440162 
L 279.788615 109.99578 
L 281.252244 113.650048 
L 282.509331 117.386112 
L 283.553699 121.186377 
L 284.380545 125.033007 
L 284.986411 128.907868 
L 285.369216 132.792697 
L 285.528276 136.669414 
L 285.464264 140.52022 
L 285.179164 144.327771 
L 284.676198 148.075317 
L 283.959749 151.746819 
L 283.035244 155.327111 
L 281.909043 158.801954 
L 280.588349 162.158022 
L 279.081027 165.383108 
L 277.39555 168.465943 
L 275.540787 171.396409 
L 273.525956 174.165334 
L 271.360463 176.76456 
L 269.053934 179.186717 
L 266.615948 181.425384 
L 264.056126 183.474828 
L 261.384064 185.329966 
L 258.6093 186.98629 
L 255.741259 188.439818 
L 252.78932 189.686975 
L 249.762861 190.724537 
L 246.671309 191.549585 
L 243.524109 192.159508 
L 240.330824 192.551959 
L 237.10129 192.72487 
L 233.845455 192.67649 
L 230.573666 192.405414 
L 227.296599 191.910659 
L 224.02531 191.191739 
L 220.771195 190.248734 
L 217.546133 189.082419 
L 214.362327 187.694326 
L 211.232389 186.086885 
L 208.169165 184.263466 
L 205.185795 182.228537 
L 202.295526 179.987687 
L 199.511614 177.547681 
L 196.847304 174.916597 
L 194.315538 172.103703 
L 191.928925 169.119545 
L 189.699613 165.975966 
L 187.639083 162.685979 
L 185.757992 159.263653 
L 184.066126 155.724152 
L 182.572214 152.083515 
L 181.283848 148.358599 
L 180.207346 144.566768 
L 179.347745 140.725931 
L 178.708698 136.854179 
L 178.292482 132.969702 
L 178.099993 129.090632 
L 178.130761 125.23486 
L 178.382996 121.419738 
L 178.853653 117.662187 
L 179.538531 113.978276 
L 180.432349 110.383354 
L 181.528862 106.891859 
L 182.820979 103.517249 
L 184.300895 100.271952 
L 185.960306 97.167185 
L 187.790328 94.213377 
L 189.781832 91.419768 
L 191.925368 88.794748 
L 194.211474 86.345648 
L 196.630466 84.079142 
L 199.172686 82.001088 
L 201.828485 80.11668 
L 204.588555 78.430342 
L 207.443377 76.94621 
L 210.383376 75.668006 
L 213.39917 74.598977 
L 216.481604 73.741992 
L 219.621062 73.09977 
L 222.186197 72.779619 
L 222.196527 72.790615 
L 222.196527 72.790615 
" clip-path="url(#p0dab631212)" style="fill: none; stroke: #2ca02c; stroke-linecap: square"/>
   </g>
   <g id="line2d_24">
    <path d="M 225.974007 72.523662 
L 226.085111 72.210636 
L 226.531277 72.180819 
L 227.937294 72.356933 
L 229.888085 72.561335 
L 233.507378 72.883883 
L 236.896424 73.398373 
L 240.301542 74.14064 
L 243.718233 75.113547 
L 247.141525 76.32018 
L 250.565521 77.763566 
L 253.983611 79.446566 
L 257.388868 81.371963 
L 260.773343 83.541983 
L 264.128248 85.958166 
L 267.44427 88.621406 
L 270.711246 91.531536 
L 273.918312 94.6872 
L 277.054069 98.08577 
L 280.106827 101.723421 
L 283.064372 105.594644 
L 285.91439 109.692515 
L 288.644289 114.008198 
L 291.241745 118.5315 
L 293.694505 123.250338 
L 295.990709 128.15102 
L 298.119049 133.218316 
L 300.068902 138.435536 
L 301.830442 143.784548 
L 303.394807 149.245984 
L 304.754255 154.799524 
L 305.902215 160.423912 
L 306.833422 166.097308 
L 307.543959 171.797445 
L 308.031321 177.501924 
L 308.294417 183.18827 
L 308.333599 188.834446 
L 308.150613 194.418969 
L 307.748563 199.920963 
L 307.131828 205.320651 
L 306.305979 210.599323 
L 305.277678 215.739527 
L 304.054542 220.725246 
L 302.644992 225.542038 
L 301.058147 230.17696 
L 299.303631 234.618736 
L 297.391455 238.857676 
L 295.331829 242.885729 
L 293.135063 246.696332 
L 290.811361 250.284444 
L 288.370737 253.646369 
L 285.82287 256.779656 
L 283.177039 259.682918 
L 280.441996 262.355726 
L 277.625896 264.798434 
L 274.736295 267.011967 
L 271.78008 268.997684 
L 268.763492 270.757184 
L 265.692115 272.292158 
L 262.570952 273.604215 
L 259.40445 274.694755 
L 256.196597 275.564842 
L 252.951043 276.215103 
L 249.671128 276.64567 
L 246.360101 276.85612 
L 243.021206 276.845474 
L 239.657724 276.612204 
L 236.273251 276.154284 
L 232.871688 275.469255 
L 229.457415 274.554326 
L 226.035377 273.406504 
L 222.611098 272.022694 
L 219.190834 270.399896 
L 215.781579 268.535346 
L 212.391099 266.426702 
L 209.027888 264.072185 
L 205.701198 261.470773 
L 202.421024 258.622396 
L 199.19798 255.528039 
L 196.043275 252.189923 
L 192.968618 248.611646 
L 189.986069 244.798243 
L 187.10801 240.756387 
L 184.346876 236.49429 
L 181.715135 232.021904 
L 179.225062 227.350825 
L 176.888611 222.494313 
L 174.717233 217.467194 
L 172.721764 212.285866 
L 170.912233 206.968085 
L 169.297749 201.532904 
L 167.88636 196.000476 
L 166.684917 190.391744 
L 165.699043 184.728519 
L 164.932992 179.032979 
L 164.389622 173.327476 
L 164.070379 167.634488 
L 163.975273 161.976182 
L 164.102902 156.374226 
L 164.450495 150.849687 
L 165.013989 145.422566 
L 165.788091 140.111938 
L 166.766404 134.935557 
L 167.941554 129.909723 
L 169.305287 125.049382 
L 170.848651 120.367831 
L 172.562138 115.876746 
L 174.435797 111.586267 
L 176.459504 107.50474 
L 178.622882 103.639251 
L 180.915769 99.995058 
L 183.328074 96.576227 
L 185.850006 93.385539 
L 188.472103 90.424707 
L 191.185631 87.694209 
L 193.982113 85.19404 
L 196.853884 82.923342 
L 199.793932 80.88081 
L 202.795946 79.06484 
L 205.854049 77.473834 
L 208.96315 76.106121 
L 212.118538 74.960282 
L 215.316496 74.035038 
L 218.552777 73.329796 
L 221.076353 72.975223 
L 221.076353 72.975223 
" clip-path="url(#p0dab631212)" style="fill: none; stroke: #d62728; stroke-linecap: square"/>
   </g>
   <g id="patch_4">
    <path d="M 57.6 307.584 
L 57.6 41.472 
" style="fill: none; stroke: #000000; stroke-width: 0.8; stroke-linejoin: miter; stroke-linecap: square"/>
   </g>
   <g id="patch_5">
    <path d="M 414.72 307.584 
L 414.72 41.472 
" style="fill: none; stroke: #000000; stroke-width: 0.8; stroke-linejoin: miter; stroke-linecap: square"/>
   </g>
   <g id="patch_6">
    <path d="M 57.6 307.584 
L 414.72 307.584 
" style="fill: none; stroke: #000000; stroke-width: 0.8; stroke-linejoin: miter; stroke-linecap: square"/>
   </g>
   <g id="patch_7">
    <path d="M 57.6 41.472 
L 414.72 41.472 
" style="fill: none; stroke: #000000; stroke-width: 0.8; stroke-linejoin: miter; stroke-linecap: square"/>
   </g>
   <g id="text_15">
    <!-- Trajectory -->
    <g transform="translate(206.537813 35.472) scale(0.12 -0.12)">
     <defs>
      <path id="DejaVuSans-54" d="M -19 4666 
L 3928 4666 
L 3928 4134 
L 2272 4134 
L 2272 0 
L 1638 0 
L 1638 4134 
L -19 4134 
L -19 4666 
z
" transform="scale(0.015625)"/>
      <path id="DejaVuSans-72" d="M 2631 2963 
Q 2534 3019 2420 3045 
Q 2306 3072 2169 3072 
Q 1681 3072 1420 2755 
Q 1159 2438 1159 1844 
L 1159 0 
L 581 0 
L 581 3500 
L 1159 3500 
L 1159 2956 
Q 1341 3275 1631 3429 
Q 1922 3584 2338 3584 
Q 2397 3584 2469 3576 
Q 2541 3569 2628 3553 
L 2631 2963 
z
" transform="scale(0.015625)"/>
      <path id="DejaVuSans-61" d="M 2194 1759 
Q 1497 1759 1228 1600 
Q 959 1441 959 1056 
Q 959 750 1161 570 
Q 1363 391 1709 391 
Q 2188 391 2477 730 
Q 2766 1069 2766 1631 
L 2766 1759 
L 2194 1759 
z
M 3341 1997 
L 3341 0 
L 2766 0 
L 2766 531 
Q 2569 213 2275 61 
Q 1981 -91 1556 -91 
Q 1019 -91 701 211 
Q 384 513 384 1019 
Q 384 1609 779 1909 
Q 1175 2209 1959 2209 
L 2766 2209 
L 2766 2266 
Q 2766 2663 2505 2880 
Q 2244 3097 1772 3097 
Q 1472 3097 1187 3025 
Q 903 2953 641 2809 
L 641 3341 
Q 956 3463 1253 3523 
Q 1550 3584 1831 3584 
Q 2591 3584 2966 3190 
Q 3341 2797 3341 1997 
z
" transform="scale(0.015625)"/>
      <path id="DejaVuSans-6a" d="M 603 3500 
L 1178 3500 
L 1178 -63 
Q 1178 -731 923 -1031 
Q 669 -1331 103 -1331 
L -116 -1331 
L -116 -844 
L 38 -844 
Q 366 -844 484 -692 
Q 603 -541 603 -63 
L 603 3500 
z
M 603 4863 
L 1178 4863 
L 1178 4134 
L 603 4134 
L 603 4863 
z
" transform="scale(0.015625)"/>
      <path id="DejaVuSans-63" d="M 3122 3366 
L 3122 2828 
Q 2878 2963 2633 3030 
Q 2388 3097 2138 3097 
Q 1578 3097 1268 2742 
Q 959 2388 959 1747 
Q 959 1106 1268 751 
Q 1578 397 2138 397 
Q 2388 397 2633 464 
Q 2878 531 3122 666 
L 3122 134 
Q 2881 22 2623 -34 
Q 2366 -91 2075 -91 
Q 1284 -91 818 406 
Q 353 903 353 1747 
Q 353 2603 823 3093 
Q 1294 3584 2113 3584 
Q 2378 3584 2631 3529 
Q 2884 3475 3122 3366 
z
" transform="scale(0.015625)"/>
      <path id="DejaVuSans-74" d="M 1172 4494 
L 1172 3500 
L 2356 3500 
L 2356 3053 
L 1172 3053 
L 1172 1153 
Q 1172 725 1289 603 
Q 1406 481 1766 481 
L 2356 481 
L 2356 0 
L 1766 0 
Q 1100 0 847 248 
Q 594 497 594 1153 
L 594 3053 
L 172 3053 
L 172 3500 
L 594 3500 
L 594 4494 
L 1172 4494 
z
" transform="scale(0.015625)"/>
      <path id="DejaVuSans-6f" d="M 1959 3097 
Q 1497 3097 1228 2736 
Q 959 2375 959 1747 
Q 959 1119 1226 758 
Q 1494 397 1959 397 
Q 2419 397 2687 759 
Q 2956 1122 2956 1747 
Q 2956 2369 2687 2733 
Q 2419 3097 1959 3097 
z
M 1959 3584 
Q 2709 3584 3137 3096 
Q 3566 2609 3566 1747 
Q 3566 888 3137 398 
Q 2709 -91 1959 -91 
Q 1206 -91 779 398 
Q 353 888 353 1747 
Q 353 2609 779 3096 
Q 1206 3584 1959 3584 
z
" transform="scale(0.015625)"/>
     </defs>
     <use xlink:href="#DejaVuSans-54"/>
     <use xlink:href="#DejaVuSans-72" transform="translate(46.333984 0)"/>
     <use xlink:href="#DejaVuSans-61" transform="translate(87.447266 0)"/>
     <use xlink:href="#DejaVuSans-6a" transform="translate(148.726562 0)"/>
     <use xlink:href="#DejaVuSans-65" transform="translate(176.509766 0)"/>
     <use xlink:href="#DejaVuSans-63" transform="translate(238.033203 0)"/>
     <use xlink:href="#DejaVuSans-74" transform="translate(293.013672 0)"/>
     <use xlink:href="#DejaVuSans-6f" transform="translate(332.222656 0)"/>
     <use xlink:href="#DejaVuSans-72" transform="translate(393.404297 0)"/>
     <use xlink:href="#DejaVuSans-79" transform="translate(434.517578 0)"/>
    </g>
   </g>
  </g>
 </g>
 <defs>
  <clipPath id="p0dab631212">
   <rect x="57.6" y="41.472" width="357.12" height="266.112"/>
  </clipPath>
 </defs>
</svg>
